<svg xmlns="http://www.w3.org/2000/svg" viewBox="0 0 409 49">
  <g fill="#000">
    <path d="M42.986 48.834l3.691-7.441c-1.29-.567-2.315-1.065-3.076-1.495-.508-.293-1.592-1.015-3.252-2.168 3.125-3.808 4.687-8.886 4.687-15.234 0-7.129-1.938-12.607-5.815-16.435C35.344 2.232 29.84.318 22.712.318 15.72.318 10.276 2.276 6.38 6.192 2.483 10.108.534 15.602.534 22.672c0 7.285 2.227 12.94 6.68 16.963 3.77 3.398 8.916 5.097 15.44 5.097 4.414 0 8.085-.634 11.015-1.904.723.625 1.992 1.558 3.809 2.798a43.038 43.038 0 005.508 3.208zM22.8 34.801c-2.793 0-4.99-.947-6.592-2.842-1.601-1.895-2.402-5.186-2.402-9.873 0-4.023.82-6.982 2.46-8.877 1.641-1.895 3.78-2.842 6.417-2.842 2.832 0 5.054.928 6.665 2.783 1.611 1.856 2.417 4.952 2.417 9.287 0 3.77-.528 6.602-1.582 8.497a38.374 38.374 0 01-1.465-.967c-1.895-1.328-3.169-2.149-3.823-2.461-.655-.313-1.568-.576-2.74-.791l-2.08 4.775c2.403.957 4.16 1.973 5.274 3.047a11.85 11.85 0 01-2.549.264zM70.32 44l7.5-27.041L85.349 44h13.008l9.463-42.95H95.28l-4.54 23.995L84.09 1.05H71.52L64.9 25.045 60.359 1.05H47.76L57.31 44h13.01zM156.88 1.1l-10.475.125V20.43h-6.826V4.1h-10.255v16.33H123.8V1.1h-9.869v28h42.95zM152.1 32h-33l-5.169 12.03h42.95zM176.53 44V26.568h1.171c1.21 0 2.295.332 3.252.996.703.508 1.504 1.612 2.402 3.311L190.445 44h15l-6.416-12.451c-.312-.625-.933-1.514-1.86-2.666-.928-1.153-1.636-1.904-2.124-2.256-.723-.527-1.875-1.055-3.457-1.582 1.972-.45 3.525-1.016 4.658-1.7 1.777-1.074 3.174-2.475 4.19-4.203 1.015-1.729 1.523-3.785 1.523-6.167 0-2.735-.664-5.054-1.992-6.958-1.329-1.905-3.077-3.208-5.245-3.912-2.168-.703-5.302-1.054-9.404-1.054H163.2V44h13.33zm5.595-25.547h-5.596v-8.73h5.83c2.422 0 4.072.37 4.951 1.113.88.742 1.319 1.807 1.319 3.193a3.97 3.97 0 01-.835 2.49 3.509 3.509 0 01-2.154 1.348c-1.738.39-2.91.586-3.515.586zM232.955 44V11.656h13.535V1.051h-40.342v10.605h13.535V44h13.272zm45.234 0V26.012l16.7-24.961H280.24l-8.672 14.502-8.672-14.502H248.16l16.728 24.96V44h13.301zm45.784 0V.318H314.1c-1.27 2.696-3.028 4.961-5.274 6.797-2.246 1.836-5.4 3.408-9.463 4.717v9.785c2.754-.84 5.044-1.719 6.87-2.637 1.827-.918 3.716-2.119 5.67-3.603V44h12.07zm45.9 0v-9.727H351.24c1.094-1.074 2.046-1.943 2.857-2.607.81-.664 2.417-1.826 4.819-3.486 4.043-2.852 6.831-5.47 8.364-7.852 1.533-2.383 2.3-4.883 2.3-7.5 0-2.46-.669-4.682-2.007-6.665-1.338-1.982-3.174-3.452-5.508-4.41-2.334-.956-5.6-1.435-9.8-1.435-4.023 0-7.172.503-9.448 1.51-2.275 1.005-4.038 2.45-5.288 4.335-1.25 1.885-2.11 4.507-2.578 7.866l11.953.967c.332-2.422.982-4.111 1.949-5.068.966-.957 2.211-1.436 3.735-1.436 1.465 0 2.68.464 3.647 1.392.967.928 1.45 2.046 1.45 3.354 0 1.211-.488 2.49-1.464 3.838-.977 1.348-3.213 3.32-6.71 5.918-5.722 4.238-9.623 7.915-11.703 11.03-2.08 3.116-3.326 6.44-3.736 9.976h35.801zm20.91.732c4.004 0 7.237-.62 9.697-1.86 2.461-1.24 4.346-3.008 5.655-5.303 1.308-2.295 1.963-4.692 1.963-7.192 0-1.992-.396-3.706-1.187-5.142a9.29 9.29 0 00-3.325-3.471c-.879-.547-2.149-1.026-3.809-1.436 2.051-1.133 3.584-2.451 4.6-3.955 1.016-1.504 1.523-3.184 1.523-5.039 0-3.164-1.25-5.791-3.75-7.88-2.5-2.09-6.552-3.136-12.158-3.136-4.883 0-8.657.957-11.323 2.871-2.666 1.915-4.468 4.668-5.405 8.262l11.279 2.022c.312-2.13.908-3.619 1.787-4.468.879-.85 2.022-1.275 3.428-1.275 1.367 0 2.441.391 3.222 1.172.782.782 1.172 1.827 1.172 3.135 0 1.367-.522 2.549-1.567 3.545s-2.349 1.494-3.911 1.494c-.371 0-.889-.049-1.553-.146l-.615 8.525c1.64-.469 2.93-.703 3.867-.703 1.758 0 3.15.547 4.175 1.64 1.025 1.094 1.538 2.637 1.538 4.63 0 1.953-.532 3.515-1.597 4.687-1.064 1.172-2.397 1.758-3.999 1.758-1.523 0-2.778-.464-3.764-1.392-.987-.928-1.714-2.593-2.183-4.995l-11.924 1.582c.781 2.676 1.9 4.898 3.355 6.665 1.455 1.768 3.31 3.11 5.566 4.028 2.256.918 5.337 1.377 9.243 1.377z"/>
  </g>
</svg>